<?xml version="1.0" encoding="utf-8"?>
<!-- Generator: Adobe Illustrator 24.0.0, SVG Export Plug-In . SVG Version: 6.00 Build 0)  -->
<svg version="1.1" id="Livello_1" xmlns="http://www.w3.org/2000/svg" xmlns:xlink="http://www.w3.org/1999/xlink" x="0px" y="0px"
	 viewBox="0 0 628.76 152.44" style="enable-background:new 0 0 628.76 152.44;" xml:space="preserve">
<style type="text/css">
	.st0{fill:#FFFFFF;}
	.st1{fill:#62B25A;}
</style>
<g>
	<path class="st0" d="M231.29,67.39h-19.42v-17.9h19.42V67.39L231.29,67.39L231.29,67.39z M211.87,76.12h19.42v74.21h-19.42V76.12
		L211.87,76.12z"/>
	<path class="st0" d="M302.28,80.19c4.88,4.03,7.32,10.7,7.32,20.03v50.1h-20.08v-45.27c0-3.92-0.52-6.92-1.56-9.01
		c-1.9-3.82-5.5-5.73-10.82-5.73c-6.53,0-11.02,2.8-13.45,8.4c-1.26,2.96-1.89,6.74-1.89,11.34v40.28h-19.43V76.12h18.77v10.79
		c2.49-3.82,4.86-6.57,7.09-8.26c4-3,9.07-4.5,15.19-4.5C291.12,74.15,297.4,76.17,302.28,80.19L302.28,80.19z"/>
	<path class="st0" d="M359.07,77.13c3.49,1.98,6.33,4.73,8.51,8.24V50.15H387v100.18h-18.56v-10.08c-2.77,4.36-5.92,7.53-9.46,9.51
		c-2.46,1.37-5.32,2.27-8.61,2.69h-8.73c-6.89-0.96-12.81-4.38-17.78-10.28c-5.92-7.04-8.89-16.07-8.89-27.09
		c0-12.71,2.91-22.7,8.75-29.99c5.83-7.29,13.62-10.93,23.37-10.93C351.58,74.15,355.58,75.15,359.07,77.13L359.07,77.13
		L359.07,77.13z M363.94,130.39c2.86-4.12,4.29-9.46,4.29-16c0-9.16-2.32-15.7-6.97-19.64c-2.8-2.38-6.07-3.57-9.78-3.57
		c-5.66,0-9.81,2.17-12.46,6.49c-2.65,4.33-3.97,9.69-3.97,16.1c0,6.92,1.35,12.44,4.05,16.59c2.7,4.14,6.8,6.21,12.3,6.21
		C356.9,136.57,361.08,134.51,363.94,130.39L363.94,130.39z"/>
	<path class="st0" d="M445.09,77.63c5.18,2.32,9.45,5.98,12.83,10.98c3.04,4.41,5.01,9.52,5.92,15.34
		c0.52,3.41,0.73,8.32,0.64,14.73h-54.2c0.3,7.4,2.9,12.58,7.8,15.56c2.97,1.85,6.55,2.77,10.74,2.77c4.44,0,8.04-1.13,10.82-3.4
		c1.51-1.23,2.85-2.93,4.01-5.11h19.9c-0.52,4.4-2.92,8.87-7.2,13.41c-5.59,6.06-13.05,9.57-22.39,10.54h-10.66
		c-7.82-0.88-14.86-3.82-21.09-8.84c-7.56-6.08-11.34-15.96-11.34-29.66c0-12.84,3.41-22.68,10.23-29.53
		c6.81-6.85,15.66-10.27,26.55-10.27C434.08,74.15,439.9,75.31,445.09,77.63L445.09,77.63L445.09,77.63z M415.72,94.48
		c-2.77,2.78-4.52,6.56-5.23,11.32h33.83c-0.36-5.07-2.1-8.92-5.23-11.55c-3.13-2.62-7.02-3.94-11.65-3.94
		C422.4,90.3,418.49,91.7,415.72,94.48L415.72,94.48z"/>
	<path class="st0" d="M526.15,80.19c4.88,4.03,7.32,10.7,7.32,20.03v50.1H513.4v-45.27c0-3.92-0.52-6.92-1.56-9.01
		c-1.9-3.82-5.5-5.73-10.82-5.73c-6.53,0-11.02,2.8-13.45,8.4c-1.26,2.96-1.89,6.74-1.89,11.34v40.28h-19.42V76.12h18.77v10.79
		c2.5-3.82,4.86-6.57,7.09-8.26c4-3,9.06-4.5,15.2-4.5C514.99,74.15,521.27,76.17,526.15,80.19L526.15,80.19z"/>
	<path class="st0" d="M572.94,104.82c3.62-0.46,6.21-1.03,7.77-1.72c2.8-1.19,4.2-3.04,4.2-5.57c0-3.07-1.08-5.19-3.22-6.36
		c-2.14-1.17-5.29-1.75-9.44-1.75c-4.66,0-7.95,1.14-9.89,3.42c-1.39,1.69-2.31,3.97-2.77,6.84h-18.77
		c0.41-6.42,2.24-11.7,5.48-15.83c5.16-6.47,14.02-9.7,26.58-9.7c8.18,0,15.44,1.56,21.79,4.66c6.35,3.11,9.52,9.18,9.52,18.21
		v34.38c0,2.38,0.04,5.27,0.13,8.66c0.14,2.55,0.54,4.27,1.19,5.18c0.65,0.91,1.64,1.66,2.95,2.25v2.84h-21.35
		c-0.59-1.5-1.01-2.91-1.23-4.22c-0.24-1.32-0.41-2.82-0.55-4.5c-2.69,2.93-5.8,5.42-9.32,7.48c-3.04,1.75-6.36,2.88-9.96,3.36
		h-8.56c-4.87-0.66-9.03-2.51-12.47-5.53c-4.41-3.87-6.61-9.36-6.61-16.46c0-9.21,3.55-15.88,10.66-20
		c3.9-2.25,9.63-3.85,17.19-4.81L572.94,104.82L572.94,104.82L572.94,104.82z M584.83,113.94c-1.25,0.79-2.5,1.42-3.77,1.9
		c-1.27,0.48-3.01,0.93-5.22,1.34l-4.43,0.83c-4.15,0.73-7.13,1.63-8.95,2.69c-3.08,1.79-4.62,4.57-4.62,8.33
		c0,3.35,0.94,5.77,2.81,7.27c1.87,1.49,4.15,2.24,6.84,2.24c4.26,0,8.18-1.24,11.76-3.72c3.58-2.48,5.45-7,5.59-13.57V113.94
		L584.83,113.94z"/>
	<path class="st1" d="M75.08,83.69V72.14H64.34c-0.42-0.05-0.84-0.13-1.27-0.13H27.72c-6.66,0-12.05,5.39-12.05,12.06v35.34
		c0,0.42,0.08,0.81,0.12,1.21v10.82h11.65c0.1,0,0.19,0.03,0.29,0.03h35.34c6.66,0,12.06-5.4,12.06-12.06V84.07
		C75.12,83.93,75.08,83.81,75.08,83.69L75.08,83.69z"/>
	<path class="st0" d="M90.91,0h-6.98v17.25h6.98V0L90.91,0L90.91,0z M83.92,116.12c0,14.67-11.93,26.6-26.6,26.6H7.06V87.71
		c0-14.67,11.94-26.6,26.61-26.6h50.26V116.12L83.92,116.12L83.92,116.12z M137.62,54.12H90.91V27.31h-6.98v26.81H33.67
		c-18.53,0-33.59,15.07-33.59,33.59v55.02H0v6.99h57.32c18.52,0,33.59-15.07,33.59-33.59V61.11h46.71c14.67,0,26.6,11.94,26.6,26.6
		v58.53h6.99V87.71C171.2,69.19,156.14,54.12,137.62,54.12L137.62,54.12z"/>
	<path class="st0" d="M625.56,80.85c-2.07,2.01-4.56,3.01-7.47,3.01c-3,0-5.53-1.02-7.59-3.08c-2.05-2.05-3.08-4.58-3.08-7.58
		c0-3.12,1.11-5.71,3.33-7.77c2.08-1.93,4.53-2.89,7.34-2.89c2.94,0,5.46,1.04,7.54,3.12c2.08,2.08,3.13,4.6,3.13,7.54
		C628.76,76.23,627.69,78.78,625.56,80.85L625.56,80.85L625.56,80.85z M611.84,67.05c-1.7,1.73-2.55,3.78-2.55,6.15
		c0,2.46,0.86,4.55,2.59,6.27c1.72,1.72,3.79,2.58,6.23,2.58c2.42,0,4.49-0.87,6.21-2.6c1.72-1.74,2.58-3.82,2.58-6.26
		c0-2.36-0.85-4.42-2.56-6.15c-1.73-1.77-3.8-2.66-6.23-2.66C615.65,64.4,613.56,65.28,611.84,67.05L611.84,67.05L611.84,67.05z
		 M613.4,79.13v-11.8c0.74,0,1.83,0.01,3.3,0.01c1.47,0.01,2.28,0.01,2.44,0.02c0.94,0.07,1.72,0.27,2.34,0.6
		c1.05,0.58,1.58,1.51,1.58,2.8c0,0.99-0.28,1.7-0.84,2.14c-0.55,0.43-1.24,0.69-2.05,0.78c0.76,0.14,1.33,0.36,1.71,0.65
		c0.71,0.53,1.06,1.42,1.06,2.66v1.08c0,0.12,0,0.24,0.02,0.36c0.01,0.12,0.04,0.24,0.07,0.36l0.09,0.34h-2.96
		c-0.1-0.39-0.16-0.95-0.2-1.68c-0.04-0.73-0.11-1.23-0.2-1.49c-0.15-0.43-0.45-0.72-0.88-0.89c-0.24-0.1-0.59-0.16-1.07-0.19
		l-0.69-0.04h-0.66v4.29H613.4L613.4,79.13L613.4,79.13z M619.04,69.61c-0.43-0.17-1.04-0.25-1.82-0.25h-0.76v3.44h1.22
		c0.74,0,1.31-0.14,1.72-0.44c0.41-0.29,0.62-0.76,0.62-1.41C620.01,70.31,619.68,69.86,619.04,69.61L619.04,69.61z"/>
</g>
</svg>
