<?xml version="1.0" encoding="UTF-8"?> <svg xmlns="http://www.w3.org/2000/svg" id="Ebene_1" data-name="Ebene 1" viewBox="0 0 740.86 127.64"><defs><style>.cls-1{fill:#00584d;}</style></defs><path class="cls-1" d="M253.78,101.24H268l-.06-74.9h-19C243.11,36.1,235,58,231.52,69.26,228.09,58,219.93,36.1,214.14,26.34h-19l-.09,74.9h14.19l-.15-54.84A285.06,285.06,0,0,1,223.9,87.07h15.24A285.06,285.06,0,0,1,254,46.4Zm51.39-19.75c0,6-4,9.77-10.41,9.77-3.65,0-6.33-2.36-6.33-6,0-3.22,1.29-5.58,7.08-7.3l6.22-1.82a6.85,6.85,0,0,0,3.44-1.72Zm2.47,19.75H320.3V65.29c0-15.24-8.59-20.17-21.68-20.17-8.48,0-15.77,1.39-20.82,3.64V61a57,57,0,0,1,19.64-3.87c5.26,0,7.73,1.94,7.73,4.62s-1.4,4.08-5.8,5.15L290.9,69c-13,3.22-17.5,9.23-17.5,17.6,0,8.8,6.23,15.78,16.53,15.78,6.65,0,12.56-2.25,16.63-7.3a16.74,16.74,0,0,0,1.08,6.12m77.29,1.18A44.31,44.31,0,0,0,396.3,101V89a27.2,27.2,0,0,1-8.05,1.29c-4.5,0-6.33-1.39-6.33-8.05V58.31h12.92V46.51H381.92V30.41c-8.37.76-13.73,3-15.13,3.76V46.51H355c-7.08,0-10.91,3.11-13.06,7a21.25,21.25,0,0,0-1.07-7H328.25v54.73h15.13V69.8c0-7,3.46-11.49,10.65-11.49l1,0v0h11.75V83.42c0,12.34,4.94,19,18.14,19m33.95-67.74a7.62,7.62,0,1,0-7.62,7.62,7.63,7.63,0,0,0,7.62-7.62m-15.13,66.56h15.13V46.51H403.75Zm57.35,0h15.13V69.58c0-6.33-.54-11.16-2-14.81-2.68-6.65-8.37-9.65-16.42-9.65-8.26,0-14.38,4.07-16.84,8.9a24.82,24.82,0,0,0-1.08-7.51H427.19v54.73h15.13V73.55c0-11.8,4-15.88,10.84-15.88,3.54,0,5.79,1.5,6.87,4.51.75,2.14,1.07,4.4,1.07,10.73Zm62.2-22.32c0,5.9-1.69,9.71-13.2,9.69-4.51,0-7.67,0-10.41,0V68.83H509c10.63,0,14.28,4.29,14.28,10.09m-3.55-31.77c0,5.69-3.75,9.66-13.73,9.66h-6.33v-18h7.19c10,0,12.87,2.68,12.87,8.36m5.16,13.74A15.85,15.85,0,0,0,536,46c0-13.95-8.06-19.63-28.34-19.63H483.91v74.9h27.85c20.77,0,27.85-7.73,27.85-21.46a19,19,0,0,0-14.7-18.89m50.89,20.6c0,6-4,9.77-10.41,9.77-3.65,0-6.33-2.36-6.33-6,0-3.22,1.29-5.58,7.08-7.3l6.22-1.82a6.85,6.85,0,0,0,3.44-1.72Zm2.47,19.75h12.66V65.29c0-15.24-8.59-20.17-21.68-20.17-8.47,0-15.77,1.39-20.82,3.64V61a57,57,0,0,1,19.64-3.87c5.26,0,7.73,1.94,7.73,4.62s-1.4,4.08-5.8,5.15L561.53,69c-13,3.22-17.5,9.23-17.5,17.6,0,8.8,6.23,15.78,16.53,15.78,6.65,0,12.56-2.25,16.63-7.3a16.74,16.74,0,0,0,1.08,6.12m56.44,0h12.66V46.51H632.24V74.2c0,11.8-3.75,16-10.62,16a6.56,6.56,0,0,1-6.76-4.62c-.75-2-1.18-4.29-1.18-10.62V46.51H598.55V78.17c0,5.79.32,10.94,1.93,14.91,2.57,6.44,7.94,9.66,16.52,9.66,8.27,0,14.17-4.19,16.64-8.91,0,1.61.21,5.37,1.07,7.41m51.86-38.53c0,3.22-2.25,5.26-7.3,6.55L672.62,71c-2.47.64-3.76,1.28-4.51,2V71.94c0-9,4.3-14.91,11.7-14.91,4.29,0,6.76,2.14,6.76,5.68m15.13-1c0-9.23-6.87-16.63-21.78-16.63-16,0-26.94,11.37-26.94,28.75s8.59,28.76,25.54,28.76c9.77,0,17.71-2,22.86-4.93V85.57c-6.76,2.9-16.31,5.15-22.86,5.15-6,0-8.37-3.75-8.37-6s1.18-3.54,4-4.18l9.66-2.26c12.13-2.79,17.92-6.65,17.92-16.52m39.16-2.15V45.87a15.11,15.11,0,0,0-4.07-.54,15.69,15.69,0,0,0-13.85,8.16,21.25,21.25,0,0,0-1.07-7H709.21v54.73h15.13V69.8c0-7,2.9-10.95,10.09-10.95a22.75,22.75,0,0,1,6.43.75"></path><path class="cls-1" d="M128.53,116.45l-17.85-17.9v-51a92.79,92.79,0,0,1,17.85,54.11ZM87.6,120.68h-.22c-28.19,0-42.34-14.33-48.27-22.89l0-.07,3.31,0A277.43,277.43,0,0,1,72.8,99.47c19,2,30.6,4.15,33.88,4.81l16.42,16.46ZM28,68.09c6.23,1,12,2.06,17.26,3.31C77.11,79,85.69,83.74,87,84.54l7.84,7.86,3.79,3.74h0l.08.08s-.4-.12-1.81-.4c-2-.37-5.28-1-7.67-1.31l-2.52-.36q-5.85-.75-13.19-1.52a283.36,283.36,0,0,0-31-1.75L35,90.77a82.28,82.28,0,0,1-7-22.68M26.09,52.45,26,51.12a140.1,140.1,0,0,0-5.35-27.6c-.38-1.13-1.53-4.45-2.29-6.13-.59-1.32-1.9-3.71-1.9-3.71l7,7.13,1.92,1.94L71.58,69.07l3.47,3.36.37.36S69.89,71,67.58,70.25c-1.79-.6-5-1.51-6.86-2C56.63,67.13,52,66,46.81,64.71,40.81,63.28,34.13,62,26.93,61c-.37-3.13-.62-6-.84-8.53M27,6.88a114.25,114.25,0,0,1,26.13,3v31l-28-28.05-6.61-6,7.69.11ZM60,42.44H103.8V91.65L60,47.74Zm0-30.76q4.57,1.41,9,3.21a97.22,97.22,0,0,1,31.4,20.67H60Zm67.69,52.06a101.08,101.08,0,0,0-21.88-32.49A104.13,104.13,0,0,0,71.62,8.53,116.65,116.65,0,0,0,27,0H0L4.35,5.56c11.19,14.32,14.14,39,14.78,46.16l.11,1.33c1,12,2.79,32.17,14.22,48.66,6.69,9.66,22.59,25.85,53.9,25.85h.24l47.81.08v-26a97.32,97.32,0,0,0-7.7-37.88"></path></svg> 